<svg xmlns="http://www.w3.org/2000/svg" xmlns:xlink="http://www.w3.org/1999/xlink" width="70.182" height="86.117" viewBox="0 0 70.182 86.117">
  <defs>
    <linearGradient id="linear-gradient" x1="0.5" x2="0.5" y2="1" gradientUnits="objectBoundingBox">
      <stop offset="0" stop-color="#38bef1"/>
      <stop offset="0.598" stop-color="#2c44b2"/>
      <stop offset="1" stop-color="#233487"/>
    </linearGradient>
    <filter id="Icon_material-location-on" x="0" y="0" width="70.182" height="86.117" filterUnits="userSpaceOnUse">
      <feOffset dy="5" input="SourceAlpha"/>
      <feGaussianBlur stdDeviation="5.5" result="blur"/>
      <feFlood flood-color="#040636" flood-opacity="0.239"/>
      <feComposite operator="in" in2="blur"/>
      <feComposite in="SourceGraphic"/>
    </filter>
  </defs>
  <g id="Grupo_460" data-name="Grupo 460" transform="translate(-537.231 -422.934)">
    <g transform="matrix(1, 0, 0, 1, 537.23, 422.93)" filter="url(#Icon_material-location-on)">
      <path id="Icon_material-location-on-2" data-name="Icon material-location-on" d="M26.091,3A18.577,18.577,0,0,0,7.5,21.591c0,13.943,18.591,34.526,18.591,34.526S44.682,35.534,44.682,21.591A18.577,18.577,0,0,0,26.091,3Zm0,25.231a6.64,6.64,0,1,1,6.64-6.64A6.642,6.642,0,0,1,26.091,28.231Z" transform="translate(9 8.5)" fill="url(#linear-gradient)"/>
    </g>
    <circle id="Elipse_50" data-name="Elipse 50" cx="7.5" cy="7.5" r="7.5" transform="translate(564.858 445.772)" fill="#fff"/>
  </g>
</svg>
